<svg width="331" height="73" viewBox="0 0 331 73" fill="none" xmlns="http://www.w3.org/2000/svg"><g clip-path="url(#clip0)" fill="red"><path d="M236.8 34.4l2.2-14.8c-4.8-2.6-11.5-4.8-19.2-4.8-15.2 0-23.5 8-23.5 18.3 0 10.9 9.9 14.1 16.7 16.4 4.1 1.5 7.3 2.6 7.3 4.8 0 1.8-2.1 3.5-6.3 3.5-6.1 0-14.6-3.5-20.1-8.4l-2.4 16.2c5.7 4.2 13.9 6.7 22.6 6.7 15.1 0 23.7-7.4 23.7-17.9 0-11-9.3-14.7-16.8-17.4-4.2-1.5-7.2-2.4-7.2-4.5 0-1.8 2.1-3.2 6.4-3.2 6.2 0 12.6 2.9 16.6 5.1zM44.2 16.3l-1 4.8c-2.9-5.7-11.5-6.3-16.1-6.3-14.4 0-27 13.8-27 32.7 0 15.2 9.2 24.8 20.7 24.8 6.4 0 11.9-1.5 16.4-6.8L36 70.8h18.1l8.3-54.6H44.2v.1zM29.1 54.1c-6.2 0-10.9-4.8-10.9-10.9 0-6 4.8-10.9 10.9-10.9 6 0 10.8 4.9 10.8 10.9 0 6.1-4.8 10.9-10.8 10.9zm148.6-37.8h-1.9l-1 4.8c-2.9-5.7-11.5-6.3-16.1-6.3-14.4 0-27 13.8-27 32.7 0 15.2 9.2 24.8 20.7 24.8 6.4 0 11.9-1.5 16.4-6.8l-1.2 5.3h18.1l8.3-54.6h-16.3v.1zm-17 37.8c-6.2 0-10.9-4.8-10.9-10.9 0-6 4.8-10.9 10.9-10.9 6 0 10.8 4.9 10.8 10.9.1 6.1-4.8 10.9-10.8 10.9zm153.4-37.8h-1.9l-1 4.8c-2.9-5.7-11.5-6.3-16.1-6.3-14.4 0-27 13.8-27 32.7 0 15.2 9.2 24.8 20.7 24.8 6.4 0 11.9-1.5 16.4-6.8l-1.2 5.3h18.1l8.3-54.6h-16.3v.1zm-17 37.8c-6.2 0-10.9-4.8-10.9-10.9 0-6 4.8-10.9 10.9-10.9 6 0 10.8 4.9 10.8 10.9 0 6.1-4.8 10.9-10.8 10.9zM79.9 18.3a9.1 9.1 0 100-18.2 9.1 9.1 0 000 18.2z"/><path d="M79.8 21.8c-3.9 0-7.4-1.8-9.7-4.5L62 70.8h18.2l7.9-52c-2.3 1.9-5.1 3-8.3 3zm42.6 12.5a9.1 9.1 0 009.1-9.1 9.1 9.1 0 00-9.1-9.1 9.1 9.1 0 00-9.1 9.1 9.1 9.1 0 009.1 9.1zm-12.7-9.1c0-3.5 1.4-6.7 3.7-9H96.3L88 70.8h18.2l5.8-38.4c-1.5-2-2.3-4.5-2.3-7.2zm148.9-7a9.1 9.1 0 009.1-9.1 9.1 9.1 0 00-9.1-9.1 9.1 9.1 0 00-9.1 9.1 9.1 9.1 0 009.1 9.1z"/><path d="M258.6 21.8c-4 0-7.6-1.9-10-4.8l-8.2 53.8h18.2l7.9-51.8c-2.2 1.8-4.9 2.8-7.9 2.8z"/></g><defs><clipPath id="clip0"><path fill="#fff" d="M0 0h330.4v72.3H0z"/></clipPath></defs></svg>