<svg id="Layer_1" data-name="Layer 1" xmlns="http://www.w3.org/2000/svg" viewBox="0 0 264.02 85.39"><defs><style>.cls-1{fill:#64b8e7}</style></defs><path class="cls-1" d="M111 14.66h-10.2l-2.11 4.79h-2.85L104.53.26h2.71L116 19.45h-2.88zm-1-2.2l-4.14-9.4-4.14 9.4zm22.12 6.99L128 13.56c-.51 0-.91.06-1.21.06H122v5.83h-2.74V.26h7.48a8.89 8.89 0 015.87 1.79A6 6 0 01134.78 7a6.47 6.47 0 01-1.1 3.79 6.16 6.16 0 01-3.12 2.21l4.55 6.44zm-1.45-9.29A3.93 3.93 0 00132 7a3.87 3.87 0 00-1.37-3.19 6.21 6.21 0 00-4-1.11H122v8.63h4.66a6.15 6.15 0 004.01-1.17zm11 7.32a8.64 8.64 0 01-2.14-6.31V.26h2.74v10.81q0 6.16 5.4 6.16a5.17 5.17 0 004-1.52 6.62 6.62 0 001.4-4.64V.26h2.66v10.91c0 2.77-.71 4.87-2.14 6.32a9.26 9.26 0 01-12 0zM178.36.26v19.19h-2.25L164.6 5.14v14.31h-2.74V.26h2.25l11.51 14.31V.26zm18.46 14.4h-10.2l-2.11 4.79h-2.82L190.38.26h2.71l8.72 19.19h-2.88zm-1-2.2l-4.14-9.4-4.14 9.4zM221.64.26v19.19h-2.25L207.88 5.14v14.31h-2.74V.26h2.25l11.51 14.31V.26zm6.23 0H236a11.73 11.73 0 015.4 1.21 8.82 8.82 0 013.6 3.39 9.53 9.53 0 011.3 5 9.53 9.53 0 01-1.3 5 8.89 8.89 0 01-3.66 3.39 11.73 11.73 0 01-5.4 1.2h-8.09zm7.93 16.81a8.81 8.81 0 004.1-.91 6.52 6.52 0 002.72-2.53 7.31 7.31 0 001-3.77 7.29 7.29 0 00-1-3.77 6.61 6.61 0 00-2.72-2.54 8.94 8.94 0 00-4.1-.9h-5.18v14.42zM252.41 19a8.64 8.64 0 01-3.17-1.74l1-2.14a8.46 8.46 0 002.81 1.61 10.4 10.4 0 003.53.61 6.31 6.31 0 003.56-.81 2.47 2.47 0 001.18-2.15 2.14 2.14 0 00-.64-1.6 4.35 4.35 0 00-1.59-.95c-.63-.22-1.53-.46-2.68-.74a25.8 25.8 0 01-3.49-1 5.8 5.8 0 01-2.28-1.6 4.29 4.29 0 01-.94-2.92 4.92 4.92 0 01.81-2.77 5.54 5.54 0 012.45-2 10 10 0 014.09-.8 13.05 13.05 0 013.35.44 9 9 0 012.82 1.26l-.9 2.2a10.34 10.34 0 00-2.58-1.17 9.8 9.8 0 00-2.69-.4 5.94 5.94 0 00-3.49.85 2.61 2.61 0 00-1.17 2.2 2.08 2.08 0 00.66 1.6 4.6 4.6 0 001.63 1 25.86 25.86 0 002.65.73 25.6 25.6 0 013.48 1 5.89 5.89 0 012.26 1.59 4.18 4.18 0 01.95 2.88 4.89 4.89 0 01-.83 2.75 5.47 5.47 0 01-2.49 2 10.43 10.43 0 01-4.11.72 13 13 0 01-4.18-.65z"/><path d="M111.08 47H100l-2.44 5.4H96l8.83-19.19h1.4l8.83 19.19h-1.51zm-.52-1.18l-5-11.07-5 11.07zm27.64-12.66l-8.56 19.19h-1.39l-8.56-19.19h1.54L129 50.54l7.75-17.38zm8.42 0H148v19.19h-1.39zM171.89 47h-11.13l-2.44 5.4h-1.5l8.82-19.19H167l8.83 19.19h-1.51zm-.52-1.18l-5-11.07-5 11.07zm16.02-11.4h-6.91v-1.26h15.21v1.26h-6.91v17.93h-1.39zm17.08-1.26h1.4v19.19h-1.4zm16.45 18.05a9.38 9.38 0 01-3.58-3.49 10.13 10.13 0 010-9.93 9.38 9.38 0 013.58-3.49A10.21 10.21 0 01226 33a10.37 10.37 0 015.1 1.26 9.26 9.26 0 013.57 3.48 10.16 10.16 0 010 10 9.26 9.26 0 01-3.57 3.48 10.37 10.37 0 01-5.1 1.26 10.22 10.22 0 01-5.08-1.27zm9.46-1.11a8.16 8.16 0 003.07-3 8.89 8.89 0 000-8.64 8.12 8.12 0 00-3.07-3 8.74 8.74 0 00-4.36-1.1 8.85 8.85 0 00-4.38 1.1 8.07 8.07 0 00-3.08 3 8.89 8.89 0 000 8.64 8.12 8.12 0 003.08 3 8.74 8.74 0 004.36 1.1 8.64 8.64 0 004.38-1.1zm31.41-16.94v19.19h-1.15l-13.07-16.67v16.67h-1.4V33.16h1.18l13 16.67V33.16zM111.08 79.85H100l-2.44 5.4H96l8.83-19.19h1.4l8.83 19.19h-1.51zm-.52-1.18l-5-11.07-5 11.07zm15.31 5.46a9.25 9.25 0 01-3.56-3.49 10.14 10.14 0 010-10 9.32 9.32 0 013.56-3.49 10.27 10.27 0 015.13-1.23 10.81 10.81 0 013.83.67 8 8 0 013 2l-.87.91a8 8 0 00-5.9-2.28 8.91 8.91 0 00-4.39 1.1 8 8 0 00-3.09 3 8.8 8.8 0 000 8.63 8 8 0 003.09 3A8.91 8.91 0 00131 84.1a8.08 8.08 0 005.9-2.3l.87.9a7.88 7.88 0 01-3 2 10.41 10.41 0 01-3.82.69 10.27 10.27 0 01-5.08-1.26zm32.53-4.28h-11.13l-2.44 5.4h-1.51l8.83-19.19h1.39l8.83 19.19h-1.51zm-.52-1.18l-5-11.07-5 11.07zm12.55-12.61H178a11.18 11.18 0 015.31 1.23 9.06 9.06 0 013.6 3.42 10.12 10.12 0 010 9.89 9.06 9.06 0 01-3.6 3.42 11.18 11.18 0 01-5.31 1.23h-7.59zM177.91 84a9.92 9.92 0 004.69-1.06 7.54 7.54 0 003.13-2.94 9.17 9.17 0 000-8.67 7.54 7.54 0 00-3.13-2.94 9.92 9.92 0 00-4.69-1.06h-6.08V84zm32.98 0v1.26h-13.24v-19.2h12.83v1.26h-11.43v7.57h10.22v1.23h-10.22V84zm27.83 1.25V68.83l-8 13.87H230l-8-13.82v16.37h-1.37V66.06h1.17l8.59 14.83 8.58-14.83h1.15v19.19zm18.55-6.61v6.61h-1.4v-6.61l-7.73-12.58h1.54l6.93 11.3 6.94-11.3H265z" fill="#231f20"/><path opacity=".15" fill="#343f51" d="M69.6 0h17.29v85.23H69.6z"/><path fill="#343f51" d="M86.88 71.29v13.94H69.6L22.09 37.72v47.51H0V2.74L2.71 0h12.91l22.09 22.09 49.17 49.2z"/><path class="cls-1" d="M37.71 0h49.17v22.09H37.71z"/><path opacity=".3" fill="#64b8e7" d="M2.45 51.57h49.17v22.1H2.45v-22.1"/></svg>