<svg id="Layer_1" data-name="Layer 1" xmlns="http://www.w3.org/2000/svg" viewBox="0 0 264.02 85.39"><defs><style>.cls-1{fill:#64b8e7}.cls-2{fill:#fff}</style></defs><path class="cls-1" d="M111.18 14.89H101l-2.11 4.79h-2.84L104.74.49h2.71l8.72 19.19h-2.88zm-1-2.2l-4.14-9.4-4.14 9.4zm22.14 6.99l-4.13-5.89c-.52 0-.92.05-1.21.05h-4.74v5.84h-2.75V.49H127a9 9 0 015.87 1.78A6.07 6.07 0 01135 7.18a6.41 6.41 0 01-1.11 3.82 6.2 6.2 0 01-3.13 2.28l4.55 6.44zm-1.45-9.29a3.9 3.9 0 001.37-3.21A3.84 3.84 0 00130.87 4a6.18 6.18 0 00-4-1.11h-4.66v8.63h4.66a6.12 6.12 0 004-1.13zm11.01 7.32a8.66 8.66 0 01-2.14-6.31V.49h2.74v10.8c0 4.12 1.8 6.17 5.4 6.17a5.22 5.22 0 004-1.52 6.68 6.68 0 001.4-4.65V.49H156V11.4a8.68 8.68 0 01-2.14 6.32 9.26 9.26 0 01-12 0zM178.57.49v19.19h-2.25L164.8 5.37v14.31h-2.74V.49h2.25l11.52 14.31V.49zM197 14.89h-10.2l-2.11 4.79h-2.83L190.58.49h2.72l8.7 19.19h-2.88zm-1-2.2l-4.14-9.4-4.14 9.4zM221.85.49v19.19h-2.25L208.08 5.37v14.31h-2.74V.49h2.25l11.52 14.31V.49zm6.23 0h8.09a11.61 11.61 0 015.4 1.21 8.86 8.86 0 013.66 3.38 9.59 9.59 0 011.3 5 9.53 9.53 0 01-1.3 5 9 9 0 01-3.66 3.39 11.73 11.73 0 01-5.4 1.2h-8.09zM236 17.3a8.79 8.79 0 004.1-.91 6.56 6.56 0 002.73-2.53 7.31 7.31 0 001-3.77 7.26 7.26 0 00-1-3.77 6.51 6.51 0 00-2.73-2.54 8.91 8.91 0 00-4.1-.9h-5.18V17.3zm16.61 1.93a8.59 8.59 0 01-3.16-1.74l1-2.14a8.35 8.35 0 002.81 1.6 10.12 10.12 0 003.52.62 6.37 6.37 0 003.57-.81 2.5 2.5 0 001.18-2.15 2.11 2.11 0 00-.65-1.6 4.35 4.35 0 00-1.59-.95 27.68 27.68 0 00-2.67-.74 27.55 27.55 0 01-3.5-1 5.84 5.84 0 01-2.27-1.6 4.31 4.31 0 01-1-2.92 4.92 4.92 0 01.87-2.8 5.59 5.59 0 012.45-2 10 10 0 014.09-.74 13 13 0 013.34.44 8.85 8.85 0 012.83 1.3l-.91 2.2a9.95 9.95 0 00-5.26-1.57 6 6 0 00-3.5.85 2.62 2.62 0 00-1.16 2.2 2.1 2.1 0 00.66 1.6 4.6 4.6 0 001.63 1 26.31 26.31 0 002.64.73A24.74 24.74 0 01261 10a5.82 5.82 0 012.27 1.59 4.18 4.18 0 01.94 2.88 4.88 4.88 0 01-.82 2.75 5.59 5.59 0 01-2.49 2 10.45 10.45 0 01-4.12.72 13.11 13.11 0 01-4.17-.71z"/><path class="cls-2" d="M111.29 47.18h-11.13l-2.44 5.4h-1.51L105 33.39h1.4l8.82 19.19h-1.5zm-.52-1.18l-5-11.07-5 11.07zm27.63-12.61l-8.55 19.19h-1.4l-8.55-19.19h1.53l7.76 17.38L137 33.39zm8.42 0h1.4v19.19h-1.4zm25.28 13.79H161l-2.44 5.4H157l8.83-19.19h1.4l8.82 19.19h-1.5zm-.52-1.18l-5.05-11.07-5 11.07zm16.01-11.35h-6.91v-1.26h15.22v1.26H189v17.93h-1.4zm17.08-1.26h1.4v19.19h-1.4zm16.45 18.05a9.35 9.35 0 01-3.57-3.44 10.06 10.06 0 010-9.93 9.35 9.35 0 013.57-3.49 10.88 10.88 0 0110.2 0A9.38 9.38 0 01234.9 38a10.21 10.21 0 010 10 9.24 9.24 0 01-3.58 3.49 10.88 10.88 0 01-10.2 0zm9.46-1.11a8 8 0 003.07-3 8.8 8.8 0 000-8.63 8 8 0 00-3.07-3 9.21 9.21 0 00-8.73 0 7.94 7.94 0 00-3.08 3 8.8 8.8 0 000 8.63 7.94 7.94 0 003.08 3 9.21 9.21 0 008.73 0zM262 33.39v19.19h-1.15l-13.08-16.67v16.67h-1.4V33.39h1.18l13.05 16.67V33.39zM111.29 80.08h-11.13l-2.44 5.4h-1.51L105 66.29h1.4l8.82 19.19h-1.5zm-.52-1.18l-5-11.08-5 11.08zm15.31 5.45a9.32 9.32 0 01-3.57-3.48 10.23 10.23 0 010-10 9.32 9.32 0 013.57-3.48 10.23 10.23 0 015.08-1.26 10.83 10.83 0 013.84.67 7.89 7.89 0 013 2l-.88.91a8 8 0 00-5.89-2.28 8.91 8.91 0 00-4.39 1.1 8 8 0 00-3.1 3 8.87 8.87 0 000 8.63 8 8 0 003.1 3 8.91 8.91 0 004.39 1.1 8.05 8.05 0 005.89-2.3l.88.9a8.07 8.07 0 01-3 2 10.47 10.47 0 01-3.83.69 10.14 10.14 0 01-5.09-1.2zm32.52-4.27h-11.13l-2.47 5.4h-1.51l8.83-19.19h1.4l8.83 19.19h-1.51zm-.52-1.18l-5-11.08L148 78.9zm12.55-12.61h7.6a11.11 11.11 0 015.3 1.23 9 9 0 013.61 3.41 10.14 10.14 0 010 9.9 8.93 8.93 0 01-3.61 3.41 11 11 0 01-5.3 1.24h-7.6zm7.49 17.93a10 10 0 004.69-1.06 7.51 7.51 0 003.12-2.94 9.09 9.09 0 000-8.67 7.51 7.51 0 00-3.12-2.94 10 10 0 00-4.69-1.06H172v16.67zm32.98 0v1.26h-13.25V66.29h12.83v1.26h-11.43v7.57h10.23v1.23h-10.23v7.87zm27.82 1.26V69.06l-8 13.87h-.69l-8-13.82v16.37h-1.37V66.29H222l8.58 14.83 8.58-14.83h1.15v19.19zm18.56-6.61v6.61h-1.4v-6.61l-7.73-12.58h1.53l6.94 11.29 6.94-11.29h1.45z"/><path opacity=".15" fill="#fff" d="M69.6.02h17.29v85.23H69.6z"/><path class="cls-2" d="M86.88 71.31v13.94H69.6L22.09 37.74v47.51H0V2.76L2.71.02h12.91l22.09 22.09 49.17 49.2z"/><path class="cls-1" d="M37.71.02h49.17v22.09H37.71z"/><path opacity=".3" fill="#64b8e7" d="M2.45 51.59h49.17v22.1H2.45v-22.1"/></svg>